<svg xmlns="http://www.w3.org/2000/svg" viewBox="0 0 1024 1024">
  <rect width="1024" height="1024" rx="180" fill="#fff"/>
  <g transform="matrix(1.1094293 0 0 1.1094293 -75.792124 -37.254045)" fill="#000">
    <path d="M457.734 587.626V457.868h122.126v-49.614h41.98v-91.594H505.44v47.705h-47.706v-91.594h209.903v234.71H505.44v154.565h74.426l-.194-53.43h87.966v108.769H457.734zm249.976 75.375v-54.384h72.512v53.43h103.043V507.48h-51.521v-47.705h51.521V316.66H780.222v47.705H707.71v-91.594h246.159v187.005h-41.98v45.797h41.98v211.812H707.71zM364.232 569.498v-74.42h51.522v74.42h-51.522zm343.478-136.437v-49.614h72.512v49.614H707.71z"/>
    <path d="M105.76 662.047v-55.339h57.247v55.339h132.081l-.539-101.136h-41.857v-51.521h-89.685v-53.43H105.76V272.77h248.068v91.595h-59.154v-48.659H165.042l-.54 92.165 37.769.383v49.614h95.41v47.705h55.338v211.812H105.76z"/>
    <path d="M363.618 465.787v-74.42h51.521v74.42h-51.521z"/>
  </g>
</svg>
